<svg width="69" height="37" viewBox="0 0 69 37" fill="none" xmlns="http://www.w3.org/2000/svg">
<path d="M43.7285 18.9551C43.3249 18.6491 43.2272 18.3398 43.4355 18.0273L44.1875 16.8945C44.4349 16.5234 44.7962 16.5039 45.2715 16.8359C45.6361 17.0898 46.1113 17.3535 46.6973 17.627C47.2897 17.8939 47.9115 18.0273 48.5625 18.0273C49.0182 18.0273 49.4577 17.9753 49.8809 17.8711C50.304 17.7669 50.6263 17.5651 50.8477 17.2656C51.069 16.9661 51.1797 16.6113 51.1797 16.2012C51.1797 15.9082 51.1309 15.651 51.0332 15.4297C50.9355 15.2083 50.776 15.026 50.5547 14.8828C50.3333 14.7396 50.1055 14.6191 49.8711 14.5215C49.4609 14.3522 48.9434 14.1862 48.3184 14.0234C47.6999 13.8542 47.0879 13.6523 46.4824 13.418C45.9421 13.2096 45.4473 12.9232 44.998 12.5586C44.5488 12.194 44.2005 11.7839 43.9531 11.3281C43.7057 10.8724 43.582 10.2637 43.582 9.50195C43.582 8.59701 43.875 7.82227 44.4609 7.17773C45.0469 6.5332 45.7207 6.11979 46.4824 5.9375C47.2441 5.75521 48.0124 5.66406 48.7871 5.66406C49.5553 5.66406 50.3464 5.78125 51.1602 6.01562C51.9805 6.25 52.599 6.54297 53.0156 6.89453C53.4258 7.23958 53.5267 7.55208 53.3184 7.83203L52.5273 8.89648C52.2604 9.26107 51.9023 9.29036 51.4531 8.98438C51.1667 8.78906 50.7728 8.57096 50.2715 8.33008C49.7767 8.08919 49.2591 7.96875 48.7188 7.96875C48.3346 7.96875 47.9798 8.0013 47.6543 8.06641C47.3353 8.13151 47.0521 8.28776 46.8047 8.53516C46.5573 8.78255 46.4336 9.08854 46.4336 9.45312C46.4336 9.80469 46.5247 10.0911 46.707 10.3125C46.8893 10.5273 47.0911 10.6901 47.3125 10.8008C47.5339 10.9049 47.7585 10.9928 47.9863 11.0645C48.6895 11.2923 49.3177 11.4941 49.8711 11.6699C50.4245 11.8392 50.9355 12.028 51.4043 12.2363C52.0553 12.5293 52.5534 12.8223 52.8984 13.1152C53.2435 13.4082 53.5267 13.8086 53.748 14.3164C53.9759 14.8242 54.0898 15.4297 54.0898 16.1328C54.0898 17.1745 53.7578 18.0371 53.0938 18.7207C52.4297 19.3978 51.6908 19.834 50.877 20.0293C50.0697 20.2311 49.2819 20.332 48.5137 20.332C47.3809 20.332 46.4596 20.2214 45.75 20C45.0404 19.7852 44.3665 19.4368 43.7285 18.9551ZM55.6133 12.998C55.6133 10.752 56.1829 8.9681 57.3223 7.64648C58.4616 6.32487 60.1055 5.66406 62.2539 5.66406C63.4909 5.66406 64.5391 5.85612 65.3984 6.24023C66.2578 6.62435 66.8633 7.18099 67.2148 7.91016C67.4492 8.39193 67.4102 8.71745 67.0977 8.88672L65.9258 9.51172C65.5156 9.73307 65.1771 9.60938 64.9102 9.14062C64.7409 8.84115 64.4251 8.57096 63.9629 8.33008C63.5072 8.08919 62.9701 7.96875 62.3516 7.96875C60.9844 7.96875 60.0273 8.40169 59.4805 9.26758C58.9336 10.127 58.6602 11.3704 58.6602 12.998C58.6602 14.6257 58.9336 15.8724 59.4805 16.7383C60.0273 17.5977 60.9844 18.0273 62.3516 18.0273C63.0872 18.0273 63.7057 17.8613 64.207 17.5293C64.7148 17.1973 65.0664 16.8815 65.2617 16.582C65.5807 16.0938 65.9193 15.9701 66.2773 16.2109L67.4492 16.9922C67.7682 17.207 67.8008 17.5326 67.5469 17.9688C67.1693 18.6198 66.5215 19.1764 65.6035 19.6387C64.6855 20.1009 63.569 20.332 62.2539 20.332C60.138 20.332 58.5007 19.6712 57.3418 18.3496C56.1895 17.028 55.6133 15.2441 55.6133 12.998Z" fill="white"/>
<path d="M20.2461 20C19.7904 20 19.5625 19.7559 19.5625 19.2676V6.72852C19.5625 6.24023 19.7904 5.99609 20.2461 5.99609H21.7305C22.1862 5.99609 22.4141 6.24023 22.4141 6.72852V19.2676C22.4141 19.7559 22.1862 20 21.7305 20H20.2461Z" fill="white"/>
<path d="M26.2461 20C25.7904 20 25.5625 19.7559 25.5625 19.2676V6.72852C25.5625 6.24023 25.7904 5.99609 26.2461 5.99609H29.0781C29.4557 5.99609 29.7259 6.25651 29.8887 6.77734L32.5352 15.3418C32.6523 15.7129 32.7337 16.0189 32.7793 16.2598C32.8249 16.4941 32.8639 16.7741 32.8965 17.0996H32.9551C32.9876 16.7741 33.0267 16.4941 33.0723 16.2598C33.1178 16.0189 33.1992 15.7129 33.3164 15.3418L35.9629 6.77734C36.1257 6.25651 36.3958 5.99609 36.7734 5.99609H39.6055C40.0612 5.99609 40.2891 6.24023 40.2891 6.72852V19.2676C40.2891 19.7559 40.0612 20 39.6055 20H38.1211C37.6654 20 37.4375 19.7559 37.4375 19.2676V11.2012C37.4375 10.8105 37.4538 10.4199 37.4863 10.0293H37.418L34.5957 19.209C34.4329 19.7363 34.153 20 33.7559 20H32.0957C31.6986 20 31.4186 19.7363 31.2559 19.209L28.4336 10.0293H28.3652C28.3978 10.4199 28.4141 10.8105 28.4141 11.2012V19.2676C28.4141 19.7559 28.1862 20 27.7305 20H26.2461Z" fill="#FEFEFE"/>
<path d="M6.78641 11H5.2359C4.00108 11 3 12.001 3 13.2359V18.7026L5.11822 20.1736V13.2359C5.11822 13.1709 5.17086 13.1182 5.2359 13.1182H6.78641V11Z" fill="url(#paint0_linear_111_71)"/>
<path d="M6.78641 11H5.2359C4.00108 11 3 12.001 3 13.2359V18.7026L5.11822 20.1736V13.2359C5.11822 13.1709 5.17086 13.1182 5.2359 13.1182H6.78641V11Z" fill="url(#paint1_radial_111_71)"/>
<path d="M12.7587 13.0712C12.7587 13.0971 12.7797 13.1182 12.8057 13.1182H14.6798C14.7449 13.1182 14.7975 13.1709 14.7975 13.2359V19.2028H16.9157V13.2359C16.9157 12.001 15.9148 11 14.6798 11H12.8057C12.7797 11 12.7587 11.0211 12.7587 11.0471V13.0712Z" fill="url(#paint2_linear_111_71)"/>
<path d="M3 18.3348V18.9838C3 22.4079 5.47335 25.2543 8.73092 25.8338C8.79904 25.8647 8.8936 25.9448 8.8936 26.098H9.61807V25.9335C9.73066 25.939 9.84396 25.9417 9.95791 25.9417C10.0684 25.9417 10.1783 25.9391 10.2875 25.934V26.098H11.0119C11.0119 25.9494 11.1009 25.8696 11.1684 25.8367C14.4341 25.2639 16.9158 22.4136 16.9158 18.9838V18.3348H14.7976V18.9838C14.7976 21.6567 12.6308 23.8235 9.95791 23.8235C7.28502 23.8235 5.11822 21.6567 5.11822 18.9838V18.3348H3Z" fill="url(#paint3_linear_111_71)"/>
<path d="M20.3564 27.1347C20.3564 25.6968 21.5221 24.5312 22.96 24.5312C24.398 24.5312 25.5636 25.6968 25.5636 27.1347H27.6819C27.6819 24.5269 25.5678 22.4129 22.96 22.4129C20.3522 22.4129 18.2382 24.5269 18.2382 27.1347V30.3887C18.2382 32.3843 16.6204 34.0022 14.6247 34.0022C12.629 34.0022 11.0113 32.3843 11.0113 30.3887V25.7915C11.0113 25.6566 10.9535 25.5283 10.8525 25.439L10.2641 24.9183C10.086 24.7606 9.81829 24.7606 9.64018 24.9183L9.05179 25.439C8.95083 25.5283 8.89302 25.6566 8.89302 25.7915V30.3887C8.89302 33.5542 11.4592 36.1204 14.6247 36.1204C17.7902 36.1204 20.3564 33.5542 20.3564 30.3887V27.1347Z" fill="#5E209E"/>
<path d="M10.3168 25.5574V30.2747C10.3168 32.8038 12.3669 34.8541 14.896 34.8541H16.1958C18.007 34.8541 19.4752 33.3858 19.4752 31.5746V26.7003C19.4752 25.0455 20.8168 23.7039 22.4716 23.7039H25.468" stroke="url(#paint4_radial_111_71)" stroke-width="0.706074"/>
<path d="M10.3168 25.5574V30.2747C10.3168 32.8038 12.3669 34.8541 14.896 34.8541H16.1958C18.007 34.8541 19.4752 33.3858 19.4752 31.5746V26.7003C19.4752 25.0455 20.8168 23.7039 22.4716 23.7039H25.468" stroke="url(#paint5_radial_111_71)" stroke-width="0.706074"/>
<path d="M24.4383 23.3509C25.3013 23.6451 27.0272 24.7337 27.0272 26.7342" stroke="url(#paint6_linear_111_71)" stroke-width="0.706074"/>
<path d="M26.4784 31.8954C28.1582 31.8954 29.52 30.5337 29.52 28.8538C29.52 27.174 28.1582 25.8123 26.4784 25.8123C24.7986 25.8123 23.4369 27.174 23.4369 28.8538C23.4369 30.5337 24.7986 31.8954 26.4784 31.8954Z" fill="url(#paint7_linear_111_71)"/>
<path d="M26.4784 31.8954C28.1582 31.8954 29.52 30.5337 29.52 28.8538C29.52 27.174 28.1582 25.8123 26.4784 25.8123C24.7986 25.8123 23.4369 27.174 23.4369 28.8538C23.4369 30.5337 24.7986 31.8954 26.4784 31.8954Z" fill="url(#paint8_radial_111_71)"/>
<path d="M26.4784 30.1763C27.2088 30.1763 27.8009 29.5842 27.8009 28.8538C27.8009 28.1235 27.2088 27.5314 26.4784 27.5314C25.748 27.5314 25.156 28.1235 25.156 28.8538C25.156 29.5842 25.748 30.1763 26.4784 30.1763Z" fill="url(#paint9_linear_111_71)"/>
<path d="M4.27137 18.6144V18.9078C4.27137 22.1888 6.93114 24.8485 10.2121 24.8485C13.4931 24.8485 16.1529 22.1888 16.1529 18.9078V18.6144" stroke="url(#paint10_radial_111_71)" stroke-width="0.611931"/>
<path d="M4.27137 18.6144V18.9078C4.27137 22.1888 6.93114 24.8485 10.2121 24.8485C13.4931 24.8485 16.1529 22.1888 16.1529 18.9078V18.6144" stroke="url(#paint11_radial_111_71)" stroke-width="0.611931"/>
<path d="M6.03069 13.1182V11H6.9889C7.57383 11 8.04801 11.4742 8.04801 12.0591C8.04801 12.644 7.57383 13.1182 6.9889 13.1182H6.03069Z" fill="#53208D"/>
<path d="M6.03069 13.1182V11H6.9889C7.57383 11 8.04801 11.4742 8.04801 12.0591C8.04801 12.644 7.57383 13.1182 6.9889 13.1182H6.03069Z" fill="url(#paint12_linear_111_71)"/>
<path d="M6.03069 13.1182V11H6.9889C7.57383 11 8.04801 11.4742 8.04801 12.0591C8.04801 12.644 7.57383 13.1182 6.9889 13.1182H6.03069Z" fill="url(#paint13_radial_111_71)"/>
<path d="M14.7297 11.6565C15.2397 11.6713 16.2596 12.0066 16.2596 13.2305V17.5846" stroke="url(#paint14_radial_111_71)" stroke-width="0.706074"/>
<path d="M13.8667 11V13.1182H12.9084C12.3235 13.1182 11.8493 12.644 11.8493 12.0591C11.8493 11.4742 12.3235 11 12.9084 11H13.8667Z" fill="#541B8D"/>
<path d="M13.8667 11V13.1182H12.9084C12.3235 13.1182 11.8493 12.644 11.8493 12.0591C11.8493 11.4742 12.3235 11 12.9084 11H13.8667Z" fill="url(#paint15_radial_111_71)"/>
<path d="M13.8667 11V13.1182H12.9084C12.3235 13.1182 11.8493 12.644 11.8493 12.0591C11.8493 11.4742 12.3235 11 12.9084 11H13.8667Z" fill="url(#paint16_radial_111_71)"/>
<path d="M4.75645 12.1714C4.57993 12.2793 4.22689 12.6303 4.22689 13.1717V17.9083" stroke="url(#paint17_linear_111_71)" stroke-width="0.706074"/>
<defs>
<linearGradient id="paint0_linear_111_71" x1="4.91926" y1="13.6259" x2="4.91926" y2="17.5588" gradientUnits="userSpaceOnUse">
<stop stop-color="#42C5FF"/>
<stop offset="1" stop-color="#58B3FF"/>
</linearGradient>
<radialGradient id="paint1_radial_111_71" cx="0" cy="0" r="1" gradientUnits="userSpaceOnUse" gradientTransform="translate(6.0215 13.2599) rotate(-143.807) scale(1.49463 0.882531)">
<stop stop-color="#4984FF"/>
<stop offset="1" stop-color="#4984FF" stop-opacity="0"/>
</radialGradient>
<linearGradient id="paint2_linear_111_71" x1="15.3912" y1="13.9366" x2="15.3912" y2="18.3348" gradientUnits="userSpaceOnUse">
<stop stop-color="#4BDCFF"/>
<stop offset="1" stop-color="#54A4FF"/>
</linearGradient>
<linearGradient id="paint3_linear_111_71" x1="6.89727" y1="22.6126" x2="16.9157" y2="22.5087" gradientUnits="userSpaceOnUse">
<stop stop-color="#5728A8"/>
<stop offset="1" stop-color="#592793"/>
</linearGradient>
<radialGradient id="paint4_radial_111_71" cx="0" cy="0" r="1" gradientUnits="userSpaceOnUse" gradientTransform="translate(8.78666 26.5576) rotate(50.3792) scale(10.3505 10.0372)">
<stop offset="0.72927" stop-color="#6F52A9"/>
<stop offset="1" stop-color="#6F52A9" stop-opacity="0"/>
</radialGradient>
<radialGradient id="paint5_radial_111_71" cx="0" cy="0" r="1" gradientUnits="userSpaceOnUse" gradientTransform="translate(19.8876 26.7636) rotate(114.627) scale(6.40796 6.27057)">
<stop offset="0.195586" stop-color="#6F52A9"/>
<stop offset="1" stop-color="#6F52A9" stop-opacity="0"/>
</radialGradient>
<linearGradient id="paint6_linear_111_71" x1="27.292" y1="26.3222" x2="22.5554" y2="22.939" gradientUnits="userSpaceOnUse">
<stop offset="0.306694" stop-color="#7A62A0"/>
<stop offset="1" stop-color="#7A62A0" stop-opacity="0"/>
</linearGradient>
<linearGradient id="paint7_linear_111_71" x1="29.5199" y1="26.9695" x2="24.2029" y2="31.3824" gradientUnits="userSpaceOnUse">
<stop stop-color="#3595FF"/>
<stop offset="1" stop-color="#3690FF"/>
</linearGradient>
<radialGradient id="paint8_radial_111_71" cx="0" cy="0" r="1" gradientUnits="userSpaceOnUse" gradientTransform="translate(27.2479 28.4993) rotate(135) scale(3.66131)">
<stop offset="0.8125" stop-color="#3386FF" stop-opacity="0"/>
<stop offset="0.995789" stop-color="#3386FF"/>
</radialGradient>
<linearGradient id="paint9_linear_111_71" x1="27.9686" y1="28.8538" x2="25.1559" y2="28.8538" gradientUnits="userSpaceOnUse">
<stop stop-color="#3677EF"/>
<stop offset="0.89953" stop-color="#3571E6"/>
</linearGradient>
<radialGradient id="paint10_radial_111_71" cx="0" cy="0" r="1" gradientUnits="userSpaceOnUse" gradientTransform="translate(4.27137 18.0888) rotate(46.4737) scale(10.7214 6.38695)">
<stop offset="0.49896" stop-color="#7567B7"/>
<stop offset="1" stop-color="#7567B7" stop-opacity="0"/>
</radialGradient>
<radialGradient id="paint11_radial_111_71" cx="0" cy="0" r="1" gradientUnits="userSpaceOnUse" gradientTransform="translate(16.493 18.2968) rotate(113.604) scale(7.32015 4.57739)">
<stop stop-color="#6D4D9B"/>
<stop offset="1" stop-color="#6D4D9B" stop-opacity="0"/>
</radialGradient>
<linearGradient id="paint12_linear_111_71" x1="6.63931" y1="10.8916" x2="6.63931" y2="12.4803" gradientUnits="userSpaceOnUse">
<stop stop-color="#483264"/>
<stop offset="1" stop-color="#483264" stop-opacity="0"/>
</linearGradient>
<radialGradient id="paint13_radial_111_71" cx="0" cy="0" r="1" gradientUnits="userSpaceOnUse" gradientTransform="translate(7.62488 11.8772) rotate(165.579) scale(1.06319 0.753635)">
<stop stop-color="#705D91"/>
<stop offset="1" stop-color="#705D91" stop-opacity="0"/>
</radialGradient>
<radialGradient id="paint14_radial_111_71" cx="0" cy="0" r="1" gradientUnits="userSpaceOnUse" gradientTransform="translate(16.4361 11.9066) rotate(90.3559) scale(4.73667 2.95866)">
<stop stop-color="#65E8FF"/>
<stop offset="1" stop-color="#65E8FF" stop-opacity="0"/>
</radialGradient>
<radialGradient id="paint15_radial_111_71" cx="0" cy="0" r="1" gradientUnits="userSpaceOnUse" gradientTransform="translate(13.605 13.1182) rotate(-134.071) scale(2.05583 2.51652)">
<stop offset="0.335476" stop-color="#3C2B5C" stop-opacity="0"/>
<stop offset="0.967777" stop-color="#3C2B5C"/>
</radialGradient>
<radialGradient id="paint16_radial_111_71" cx="0" cy="0" r="1" gradientUnits="userSpaceOnUse" gradientTransform="translate(13.8667 11.7711) rotate(179.45) scale(1.35372 0.771188)">
<stop stop-color="#4F3276"/>
<stop offset="1" stop-color="#4F3276" stop-opacity="0"/>
</radialGradient>
<linearGradient id="paint17_linear_111_71" x1="4.75645" y1="8.84696" x2="6.93451" y2="9.4618" gradientUnits="userSpaceOnUse">
<stop stop-color="#65E8FF"/>
<stop offset="1" stop-color="#65E8FF" stop-opacity="0"/>
</linearGradient>
</defs>
</svg>
